# xmcd
#
# Track frame offsets:
#	150
#	5529
#	24383
#	45024
#	62414
#	82716
#	98232
#	123049
#	142153
#	162469
#	177808
#	197426
#	216531
#	234738
#	252588
#	271158
#	288751
#	311634
#	328322
#
# Disc length: 4774 seconds
#
# Revision: 1
# Processed by: cddbd v1.5.1PL0 Copyright (c) Steve Scherf et al.
# Submitted via: audiograbber 1.83.01
#
DISCID=0312a413
DTITLE=E.S.G - All American Gangsta 
DYEAR=2004
DGENRE=Rap
TTITLE0=Intro
TTITLE1=All American Gangsta 
TTITLE2=Dirty Hustle
TTITLE3=Getting Money 
TTITLE4=If you wanna Ride with us  
TTITLE5=E.S.G
TTITLE6=In my Cadillac
TTITLE7=Comin' down 
TTITLE8=South Side comin
TTITLE9=Snake-n-da-Gras
TTITLE10=City on Lock down
TTITLE11=Coast 2 Coast 
TTITLE12=Come with me 
TTITLE13=Some of these
TTITLE14=I should Hate u 
TTITLE15=Can't fuck with u 
TTITLE16=Stay Strong 
TTITLE17=What you see
TTITLE18=I`m a Beast 
EXTD=
EXTT0=
EXTT1=
EXTT2=
EXTT3=
EXTT4=
EXTT5=
EXTT6=
EXTT7=
EXTT8=
EXTT9=
EXTT10=
EXTT11=
EXTT12=
EXTT13=
EXTT14=
EXTT15=
EXTT16=
EXTT17=
EXTT18=
PLAYORDER=
